<svg xmlns="http://www.w3.org/2000/svg" width="2230" height="1810" viewBox="0 0 2230 1810"><rect width="2230" height="1810" fill="#f7f5ef"/><style>text{font-family:Arial,Helvetica,sans-serif}</style><defs><filter id="w"><feTurbulence baseFrequency=".012" numOctaves="1" seed="9" result="n"/><feDisplacementMap in="SourceGraphic" in2="n" scale=".65"/></filter></defs>
<text x="65" y="71" fill="#17212b" font-size="36" font-weight="600"><tspan x="65" dy="0">WonderDrive — one simple journey screen</tspan></text>
<text x="67" y="100" fill="#667085" font-size="16" font-weight="500"><tspan x="67" dy="0">Information stays at the top. The next two questions always arrive at the bottom. Loading uses the exact same content geometry.</tspan></text>
<rect x="1720" y="39" width="400" height="50" rx="7" fill="#dfff58" stroke="#17212b" stroke-width="2"  filter="url(#w)"/>
<text x="1775" y="67" fill="#17212b" font-size="13" font-weight="500"><tspan x="1775" dy="0">ONE LAYOUT · ZERO PAGE SWITCHES</tspan></text>
<ellipse cx="85" cy="159" rx="20" ry="20" fill="#acd8ff" stroke="#17212b" stroke-width="2" filter="url(#w)"/>
<text x="79" y="163" fill="#17212b" font-size="17" font-weight="500"><tspan x="79" dy="0">1</tspan></text>
<text x="120" y="164" fill="#17212b" font-size="23" font-weight="600"><tspan x="120" dy="0">Loading naturally</tspan></text>
<text x="120" y="183" fill="#667085" font-size="11" font-weight="500"><tspan x="120" dy="0">Same screen · content-shaped placeholders</tspan></text>
<rect x="65" y="210" width="1010" height="1430" rx="7" fill="#fffdf8" stroke="#17212b" stroke-width="3"  filter="url(#w)"/>
<rect x="65" y="210" width="1010" height="55" rx="7" fill="#eeeae2" stroke="#17212b" stroke-width="2"  filter="url(#w)"/>
<ellipse cx="92.5" cy="236.5" rx="5.5" ry="5.5" fill="#ff7b67" stroke="#17212b" stroke-width="1" filter="url(#w)"/>
<ellipse cx="113.5" cy="236.5" rx="5.5" ry="5.5" fill="#ffd166" stroke="#17212b" stroke-width="1" filter="url(#w)"/>
<ellipse cx="134.5" cy="236.5" rx="5.5" ry="5.5" fill="#81d88d" stroke="#17212b" stroke-width="1" filter="url(#w)"/>
<rect x="320" y="224" width="500" height="28" rx="7" fill="#ffffff" stroke="#b7bec6" stroke-width="1"  filter="url(#w)"/>
<text x="470" y="240" fill="#667085" font-size="10" font-weight="500"><tspan x="470" dy="0">wonderdrive.app/journey/7</tspan></text>
<text x="100" y="307" fill="#17212b" font-size="15" font-weight="500"><tspan x="100" dy="0">WONDERDRIVE</tspan></text>
<text x="515" y="305" fill="#17212b" font-size="11" font-weight="500"><tspan x="515" dy="0">Journey</tspan></text>
<text x="590" y="305" fill="#667085" font-size="11" font-weight="500"><tspan x="590" dy="0">Map</tspan></text>
<text x="1007" y="306" fill="#17212b" font-size="12" font-weight="500"><tspan x="1007" dy="0">•••</tspan></text>
<polyline points="90,328 1050,328" fill="none" stroke="#ccd2d7" stroke-width="1"/>
<text x="110" y="369" fill="#d64b38" font-size="9" font-weight="500"><tspan x="110" dy="0">TURN 01 · SAGE</tspan></text>
<text x="110" y="416" fill="#17212b" font-size="29" font-weight="600"><tspan x="110" dy="0">Where does a city keep its memories?</tspan></text>
<rect x="874" y="357" width="72" height="50" rx="7" fill="#ffffff" stroke="#bdc5cb" stroke-width="1"  filter="url(#w)"/>
<text x="898" y="383" fill="#17212b" font-size="18" font-weight="500"><tspan x="898" dy="0">1</tspan></text>
<text x="892" y="396" fill="#667085" font-size="7" font-weight="500"><tspan x="892" dy="0">TURN</tspan></text>
<rect x="946" y="357" width="82" height="50" rx="7" fill="#ffffff" stroke="#bdc5cb" stroke-width="1"  filter="url(#w)"/>
<text x="973" y="383" fill="#17212b" font-size="18" font-weight="500"><tspan x="973" dy="0">—</tspan></text>
<text x="964" y="396" fill="#667085" font-size="7" font-weight="500"><tspan x="964" dy="0">SOURCES</tspan></text>
<polyline points="90,435 1050,435" fill="none" stroke="#ccd2d7" stroke-width="1"/>
<ellipse cx="1175" cy="159" rx="20" ry="20" fill="#dfff58" stroke="#17212b" stroke-width="2" filter="url(#w)"/>
<text x="1169" y="163" fill="#17212b" font-size="17" font-weight="500"><tspan x="1169" dy="0">2</tspan></text>
<text x="1210" y="164" fill="#17212b" font-size="23" font-weight="600"><tspan x="1210" dy="0">Ready to continue</tspan></text>
<text x="1210" y="183" fill="#667085" font-size="11" font-weight="500"><tspan x="1210" dy="0">Same screen · information replaces placeholders</tspan></text>
<rect x="1155" y="210" width="1010" height="1430" rx="7" fill="#fffdf8" stroke="#17212b" stroke-width="3"  filter="url(#w)"/>
<rect x="1155" y="210" width="1010" height="55" rx="7" fill="#eeeae2" stroke="#17212b" stroke-width="2"  filter="url(#w)"/>
<ellipse cx="1182.5" cy="236.5" rx="5.5" ry="5.5" fill="#ff7b67" stroke="#17212b" stroke-width="1" filter="url(#w)"/>
<ellipse cx="1203.5" cy="236.5" rx="5.5" ry="5.5" fill="#ffd166" stroke="#17212b" stroke-width="1" filter="url(#w)"/>
<ellipse cx="1224.5" cy="236.5" rx="5.5" ry="5.5" fill="#81d88d" stroke="#17212b" stroke-width="1" filter="url(#w)"/>
<rect x="1410" y="224" width="500" height="28" rx="7" fill="#ffffff" stroke="#b7bec6" stroke-width="1"  filter="url(#w)"/>
<text x="1560" y="240" fill="#667085" font-size="10" font-weight="500"><tspan x="1560" dy="0">wonderdrive.app/journey/7</tspan></text>
<text x="1190" y="307" fill="#17212b" font-size="15" font-weight="500"><tspan x="1190" dy="0">WONDERDRIVE</tspan></text>
<text x="1605" y="305" fill="#17212b" font-size="11" font-weight="500"><tspan x="1605" dy="0">Journey</tspan></text>
<text x="1680" y="305" fill="#667085" font-size="11" font-weight="500"><tspan x="1680" dy="0">Map</tspan></text>
<text x="2097" y="306" fill="#17212b" font-size="12" font-weight="500"><tspan x="2097" dy="0">•••</tspan></text>
<polyline points="1180,328 2140,328" fill="none" stroke="#ccd2d7" stroke-width="1"/>
<text x="1200" y="369" fill="#d64b38" font-size="9" font-weight="500"><tspan x="1200" dy="0">TURN 01 · SAGE</tspan></text>
<text x="1200" y="416" fill="#17212b" font-size="29" font-weight="600"><tspan x="1200" dy="0">Where does a city keep its memories?</tspan></text>
<rect x="1964" y="357" width="72" height="50" rx="7" fill="#ffffff" stroke="#bdc5cb" stroke-width="1"  filter="url(#w)"/>
<text x="1988" y="383" fill="#17212b" font-size="18" font-weight="500"><tspan x="1988" dy="0">1</tspan></text>
<text x="1982" y="396" fill="#667085" font-size="7" font-weight="500"><tspan x="1982" dy="0">TURN</tspan></text>
<rect x="2036" y="357" width="82" height="50" rx="7" fill="#ffffff" stroke="#bdc5cb" stroke-width="1"  filter="url(#w)"/>
<text x="2063" y="383" fill="#17212b" font-size="18" font-weight="500"><tspan x="2063" dy="0">4</tspan></text>
<text x="2054" y="396" fill="#667085" font-size="7" font-weight="500"><tspan x="2054" dy="0">SOURCES</tspan></text>
<polyline points="1180,435 2140,435" fill="none" stroke="#ccd2d7" stroke-width="1"/>
<ellipse cx="144.5" cy="488.5" rx="19.5" ry="19.5" fill="#ffd2ca" stroke="#ff7b67" stroke-width="1" filter="url(#w)"/>
<text x="139" y="492" fill="#a33728" font-size="15" font-weight="500"><tspan x="139" dy="0">S</tspan></text>
<text x="178" y="483" fill="#17212b" font-size="15" font-weight="500"><tspan x="178" dy="0">Sage is researching</tspan></text>
<text x="178" y="499" fill="#667085" font-size="9" font-weight="500"><tspan x="178" dy="0">live web research · foreground only</tspan></text>
<rect x="825" y="468" width="170" height="30" rx="7" fill="#e6f4ff" stroke="#3182ce" stroke-width="1"  filter="url(#w)"/>
<ellipse cx="845" cy="483" rx="5" ry="5" fill="#3182ce" stroke="#3182ce" stroke-width="1" filter="url(#w)"/>
<text x="859" y="485" fill="#1971c2" font-size="9" font-weight="500"><tspan x="859" dy="0">CHECKING SOURCES</tspan></text>
<polyline points="120,525 1000,525" fill="none" stroke="#d0d6da" stroke-width="1"/>
<rect x="120" y="550" width="880" height="70" rx="7" fill="#f1f6f8" stroke="#c5d0d7" stroke-width="1"  filter="url(#w)"/>
<text x="140" y="573" fill="#1971c2" font-size="9" font-weight="500"><tspan x="140" dy="0">LIVE PROGRESS</tspan></text>
<text x="140" y="598" fill="#17212b" font-size="11" font-weight="500"><tspan x="140" dy="0">Searching archives</tspan></text>
<text x="375" y="598" fill="#17212b" font-size="11" font-weight="500"><tspan x="375" dy="0">Checking sources</tspan></text>
<text x="605" y="598" fill="#8c979f" font-size="11" font-weight="500"><tspan x="605" dy="0">Composing answer</tspan></text>
<polyline points="140,608 910,608" fill="none" stroke="#d3d9dd" stroke-width="4"/>
<polyline points="140,608 610,608" fill="none" stroke="#dfff58" stroke-width="4"/>
<ellipse cx="609" cy="608" rx="7" ry="7" fill="#dfff58" stroke="#6d8200" stroke-width="1" filter="url(#w)"/>
<text x="120" y="660" fill="#8b959c" font-size="9" font-weight="500"><tspan x="120" dy="0">ANSWER</tspan></text>
<rect x="120" y="682" width="630" height="23" rx="7" fill="#dfe4e7" stroke="#dfe4e7" stroke-width="1"  filter="url(#w)"/>
<rect x="120" y="720" width="825" height="18" rx="7" fill="#e5e9eb" stroke="#e5e9eb" stroke-width="1"  filter="url(#w)"/>
<rect x="120" y="752" width="780" height="18" rx="7" fill="#e5e9eb" stroke="#e5e9eb" stroke-width="1"  filter="url(#w)"/>
<rect x="120" y="784" width="850" height="18" rx="7" fill="#e5e9eb" stroke="#e5e9eb" stroke-width="1"  filter="url(#w)"/>
<rect x="120" y="816" width="610" height="18" rx="7" fill="#e5e9eb" stroke="#e5e9eb" stroke-width="1"  filter="url(#w)"/>
<rect x="120" y="866" width="790" height="18" rx="7" fill="#e5e9eb" stroke="#e5e9eb" stroke-width="1"  filter="url(#w)"/>
<rect x="120" y="898" width="845" height="18" rx="7" fill="#e5e9eb" stroke="#e5e9eb" stroke-width="1"  filter="url(#w)"/>
<rect x="120" y="930" width="550" height="18" rx="7" fill="#e5e9eb" stroke="#e5e9eb" stroke-width="1"  filter="url(#w)"/>
<rect x="120" y="985" width="880" height="88" rx="7" fill="#edf0f2" stroke="#d4dade" stroke-width="1"  filter="url(#w)"/>
<rect x="143" y="1005" width="170" height="10" rx="7" fill="#d4dade" stroke="#d4dade" stroke-width="1"  filter="url(#w)"/>
<rect x="143" y="1029" width="705" height="14" rx="7" fill="#dfe4e7" stroke="#dfe4e7" stroke-width="1"  filter="url(#w)"/>
<rect x="120" y="1105" width="880" height="48" rx="7" fill="#ffffff" stroke="#bcc5cb" stroke-width="1"  filter="url(#w)"/>
<rect x="139" y="1122" width="150" height="10" rx="7" fill="#dfe4e7" stroke="#dfe4e7" stroke-width="1"  filter="url(#w)"/>
<text x="970" y="1131" fill="#8b959c" font-size="13" font-weight="500"><tspan x="970" dy="0">⌄</tspan></text>
<polyline points="120,1195 1000,1195" fill="none" stroke="#17212b" stroke-width="1"/>
<text x="120" y="1229" fill="#8b959c" font-size="9" font-weight="500"><tspan x="120" dy="0">UP NEXT</tspan></text>
<text x="120" y="1264" fill="#667085" font-size="18" font-weight="500"><tspan x="120" dy="0">Two paths will appear when the answer is ready.</tspan></text>
<rect x="120" y="1290" width="425" height="160" rx="7" fill="#eef1f2" stroke="#c6ced3" stroke-width="2" stroke-dasharray="9 7" filter="url(#w)"/>
<ellipse cx="151.5" cy="1321.5" rx="11.5" ry="11.5" fill="#d5dade" stroke="#d5dade" stroke-width="1" filter="url(#w)"/>
<rect x="177" y="1312" width="110" height="10" rx="7" fill="#d5dade" stroke="#d5dade" stroke-width="1"  filter="url(#w)"/>
<rect x="140" y="1355" width="330" height="17" rx="7" fill="#d9dee1" stroke="#d9dee1" stroke-width="1"  filter="url(#w)"/>
<rect x="140" y="1386" width="270" height="17" rx="7" fill="#d9dee1" stroke="#d9dee1" stroke-width="1"  filter="url(#w)"/>
<rect x="575" y="1290" width="425" height="160" rx="7" fill="#eef1f2" stroke="#c6ced3" stroke-width="2" stroke-dasharray="9 7" filter="url(#w)"/>
<ellipse cx="606.5" cy="1321.5" rx="11.5" ry="11.5" fill="#d5dade" stroke="#d5dade" stroke-width="1" filter="url(#w)"/>
<rect x="632" y="1312" width="110" height="10" rx="7" fill="#d5dade" stroke="#d5dade" stroke-width="1"  filter="url(#w)"/>
<rect x="595" y="1355" width="330" height="17" rx="7" fill="#d9dee1" stroke="#d9dee1" stroke-width="1"  filter="url(#w)"/>
<rect x="595" y="1386" width="250" height="17" rx="7" fill="#d9dee1" stroke="#d9dee1" stroke-width="1"  filter="url(#w)"/>
<text x="120" y="1490" fill="#667085" font-size="10" font-weight="500"><tspan x="120" dy="0">Questions stay at the bottom—nothing jumps around while loading.</tspan></text>
<ellipse cx="1234.5" cy="488.5" rx="19.5" ry="19.5" fill="#ffd2ca" stroke="#ff7b67" stroke-width="1" filter="url(#w)"/>
<text x="1229" y="492" fill="#a33728" font-size="15" font-weight="500"><tspan x="1229" dy="0">S</tspan></text>
<text x="1268" y="483" fill="#17212b" font-size="15" font-weight="500"><tspan x="1268" dy="0">Sage</tspan></text>
<text x="1268" y="499" fill="#667085" font-size="9" font-weight="500"><tspan x="1268" dy="0">performed from live web research</tspan></text>
<rect x="1963" y="468" width="122" height="30" rx="7" fill="#dfff58" stroke="#17212b" stroke-width="1"  filter="url(#w)"/>
<text x="1990" y="485" fill="#17212b" font-size="9" font-weight="500"><tspan x="1990" dy="0">COMPOSED</tspan></text>
<polyline points="1210,525 2090,525" fill="none" stroke="#d0d6da" stroke-width="1"/>
<rect x="1210" y="550" width="880" height="70" rx="7" fill="#efffc4" stroke="#849c15" stroke-width="1"  filter="url(#w)"/>
<ellipse cx="1238.5" cy="580.5" rx="8.5" ry="8.5" fill="#17212b" stroke="#17212b" stroke-width="1" filter="url(#w)"/>
<text x="1235" y="583" fill="#ffffff" font-size="10" font-weight="500"><tspan x="1235" dy="0">✓</tspan></text>
<text x="1261" y="574" fill="#17212b" font-size="9" font-weight="500"><tspan x="1261" dy="0">ANSWER READY</tspan></text>
<text x="1261" y="595" fill="#667085" font-size="10" font-weight="500"><tspan x="1261" dy="0">4 sources checked · composed in 38 seconds</tspan></text>
<text x="1968" y="582" fill="#17212b" font-size="9" font-weight="500"><tspan x="1968" dy="0">VIEW TRAIL  ⌄</tspan></text>
<text x="1210" y="660" fill="#8b959c" font-size="9" font-weight="500"><tspan x="1210" dy="0">ANSWER</tspan></text>
<text x="1210" y="734" fill="#17212b" font-size="54" font-weight="600"><tspan x="1210" dy="0">C</tspan></text>
<text x="1250" y="696" fill="#17212b" font-size="16" font-weight="500"><tspan x="1250" dy="0">ities remember in layers: through street names, buildings, archives,</tspan></text>
<text x="1250" y="723" fill="#17212b" font-size="16" font-weight="500"><tspan x="1250" dy="0">rituals, and the stories residents repeat. Official records preserve</tspan></text>
<text x="1210" y="754" fill="#17212b" font-size="16" font-weight="500"><tspan x="1210" dy="0">decisions, while everyday memory survives in landmarks, local language,</tspan></text>
<text x="1210" y="785" fill="#17212b" font-size="16" font-weight="500"><tspan x="1210" dy="0">and contested public space.</tspan></text>
<ellipse cx="1924" cy="777" rx="9" ry="9" fill="#acd8ff" stroke="#17212b" stroke-width="1" filter="url(#w)"/>
<text x="1921" y="779" fill="#17212b" font-size="9" font-weight="500"><tspan x="1921" dy="0">1</tspan></text>
<text x="1210" y="846" fill="#17212b" font-size="16" font-weight="500"><tspan x="1210" dy="0">What a city chooses to preserve—and what it allows to disappear—</tspan></text>
<text x="1210" y="877" fill="#17212b" font-size="16" font-weight="500"><tspan x="1210" dy="0">reveals who has had the power to define its shared past.</tspan></text>
<ellipse cx="1880" cy="869" rx="9" ry="9" fill="#acd8ff" stroke="#17212b" stroke-width="1" filter="url(#w)"/>
<text x="1877" y="871" fill="#17212b" font-size="9" font-weight="500"><tspan x="1877" dy="0">2</tspan></text>
<rect x="1210" y="926" width="880" height="105" rx="7" fill="#efffc4" stroke="#17212b" stroke-width="1"  filter="url(#w)"/>
<text x="1233" y="955" fill="#17212b" font-size="9" font-weight="500"><tspan x="1233" dy="0">WHERE THIS LEAVES US</tspan></text>
<text x="1233" y="986" fill="#17212b" font-size="14" font-weight="500"><tspan x="1233" dy="0">A city's memory is less like a vault and more like a negotiation</tspan></text>
<text x="1233" y="1011" fill="#17212b" font-size="14" font-weight="500"><tspan x="1233" dy="0">that every generation quietly edits.</tspan></text>
<rect x="1210" y="1065" width="880" height="48" rx="7" fill="#ffffff" stroke="#17212b" stroke-width="1"  filter="url(#w)"/>
<text x="1230" y="1092" fill="#17212b" font-size="11" font-weight="500"><tspan x="1230" dy="0">Sources &amp; evidence</tspan></text>
<text x="1925" y="1090" fill="#667085" font-size="9" font-weight="500"><tspan x="1925" dy="0">4 inspectable links</tspan></text>
<text x="2062" y="1091" fill="#17212b" font-size="13" font-weight="500"><tspan x="2062" dy="0">⌄</tspan></text>
<rect x="1210" y="1113" width="880" height="48" rx="7" fill="#ffffff" stroke="#17212b" stroke-width="1"  filter="url(#w)"/>
<text x="1230" y="1140" fill="#17212b" font-size="11" font-weight="500"><tspan x="1230" dy="0">Research trail</tspan></text>
<text x="1901" y="1138" fill="#667085" font-size="9" font-weight="500"><tspan x="1901" dy="0">activity, not reasoning</tspan></text>
<text x="2062" y="1139" fill="#17212b" font-size="13" font-weight="500"><tspan x="2062" dy="0">⌄</tspan></text>
<polyline points="1210,1195 2090,1195" fill="none" stroke="#17212b" stroke-width="1"/>
<text x="1210" y="1229" fill="#d64b38" font-size="9" font-weight="500"><tspan x="1210" dy="0">UP NEXT · CHOOSE ONE</tspan></text>
<text x="1210" y="1267" fill="#17212b" font-size="21" font-weight="500"><tspan x="1210" dy="0">Where should curiosity go next?</tspan></text>
<rect x="1210" y="1290" width="425" height="160" rx="7" fill="#acd8ff" stroke="#17212b" stroke-width="2"  filter="url(#w)"/>
<ellipse cx="1241.5" cy="1321.5" rx="11.5" ry="11.5" fill="#17212b" stroke="#17212b" stroke-width="1" filter="url(#w)"/>
<text x="1238" y="1322" fill="#ffffff" font-size="10" font-weight="500"><tspan x="1238" dy="0">A</tspan></text>
<text x="1267" y="1323" fill="#17212b" font-size="9" font-weight="500"><tspan x="1267" dy="0">PLACE &amp; POWER</tspan></text>
<text x="1230" y="1370" fill="#17212b" font-size="18" font-weight="500"><tspan x="1230" dy="0">Who decides which city</tspan></text>
<text x="1230" y="1396" fill="#17212b" font-size="18" font-weight="500"><tspan x="1230" dy="0">memories become official?</tspan></text>
<polyline points="1230,1414 1610,1414" fill="none" stroke="#5d7688" stroke-width="1"/>
<text x="1230" y="1432" fill="#17212b" font-size="8" font-weight="500"><tspan x="1230" dy="0">TAKE THIS PATH</tspan></text>
<rect x="1665" y="1290" width="425" height="160" rx="7" fill="#dfff58" stroke="#17212b" stroke-width="2"  filter="url(#w)"/>
<ellipse cx="1696.5" cy="1321.5" rx="11.5" ry="11.5" fill="#17212b" stroke="#17212b" stroke-width="1" filter="url(#w)"/>
<text x="1693" y="1322" fill="#ffffff" font-size="10" font-weight="500"><tspan x="1693" dy="0">B</tspan></text>
<text x="1722" y="1323" fill="#17212b" font-size="9" font-weight="500"><tspan x="1722" dy="0">LOSS &amp; RECOVERY</tspan></text>
<text x="1685" y="1370" fill="#17212b" font-size="18" font-weight="500"><tspan x="1685" dy="0">Can a city recover a</tspan></text>
<text x="1685" y="1396" fill="#17212b" font-size="18" font-weight="500"><tspan x="1685" dy="0">memory it erased?</tspan></text>
<polyline points="1685,1414 2065,1414" fill="none" stroke="#758822" stroke-width="1"/>
<text x="1685" y="1432" fill="#17212b" font-size="8" font-weight="500"><tspan x="1685" dy="0">TAKE THIS PATH</tspan></text>
<rect x="1210" y="1480" width="880" height="48" rx="7" fill="#17212b" stroke="#17212b" stroke-width="1"  filter="url(#w)"/>
<text x="1230" y="1507" fill="#fffdf8" font-size="11" font-weight="500"><tspan x="1230" dy="0">✦  Let Sage choose for this turn</tspan></text>
<text x="2055" y="1509" fill="#dfff58" font-size="15" font-weight="500"><tspan x="2055" dy="0">→</tspan></text>
<text x="1210" y="1564" fill="#667085" font-size="10" font-weight="500"><tspan x="1210" dy="0">Neither path?  Adjust direction and redraw</tspan></text>
<polyline points="1080,828 1136,828" fill="none" stroke="#ff7b67" stroke-width="4"/>
<path d="M1124,820 L1136,828 L1124,836" fill="none" stroke="#ff7b67" stroke-width="4"/>
<rect x="1040" y="773" width="137" height="38" rx="7" fill="#fffdf8" stroke="#ff7b67" stroke-width="1"  filter="url(#w)"/>
<text x="1057" y="792" fill="#d64b38" font-size="9" font-weight="500"><tspan x="1057" dy="0">SAME GEOMETRY</tspan></text>
<rect x="65" y="1680" width="2100" height="92" rx="7" fill="#e6f4ff" stroke="#3182ce" stroke-width="2"  filter="url(#w)"/>
<text x="92" y="1710" fill="#1971c2" font-size="10" font-weight="500"><tspan x="92" dy="0">SIMPLE INTERACTION RULE</tspan></text>
<text x="92" y="1740" fill="#17212b" font-size="14" font-weight="500"><tspan x="92" dy="0">Keep every final element in place from the first loading frame. Grey skeletons become answer text, evidence, and exactly two bottom questions—so the user never has to reorient.</tspan></text>
</svg>