<svg xmlns="http://www.w3.org/2000/svg" width="1920" height="1080" viewBox="0 0 1920 1080"><rect width="1920" height="1080" fill="#f7f5ef"/><style>text{font-family:Arial,Helvetica,sans-serif}</style><defs><filter id="w"><feTurbulence baseFrequency=".014" numOctaves="1" seed="11" result="n"/><feDisplacementMap in="SourceGraphic" in2="n" scale=".45"/></filter></defs>
<rect x="15" y="15" width="1890" height="1050" rx="6" fill="#fffdf8" stroke="#17212b" stroke-width="3"  filter="url(#w)"/>
<rect x="15" y="15" width="1890" height="54" rx="6" fill="#eeeae2" stroke="#17212b" stroke-width="2"  filter="url(#w)"/>
<ellipse cx="43.5" cy="41.5" rx="5.5" ry="5.5" fill="#ff7b67" stroke="#17212b" stroke-width="1" filter="url(#w)"/>
<ellipse cx="64.5" cy="41.5" rx="5.5" ry="5.5" fill="#ffd166" stroke="#17212b" stroke-width="1" filter="url(#w)"/>
<ellipse cx="85.5" cy="41.5" rx="5.5" ry="5.5" fill="#81d88d" stroke="#17212b" stroke-width="1" filter="url(#w)"/>
<rect x="700" y="28" width="520" height="28" rx="6" fill="#ffffff" stroke="#bbc3c9" stroke-width="1"  filter="url(#w)"/>
<text x="858" y="44" fill="#667085" font-size="10" font-weight="500"><tspan x="858" dy="0">wonderdrive.app/journey/7</tspan></text>
<text x="48" y="103" fill="#17212b" font-size="15" font-weight="500"><tspan x="48" dy="0">WONDERDRIVE</tspan></text>
<text x="810" y="101" fill="#17212b" font-size="11" font-weight="500"><tspan x="810" dy="0">Journey</tspan></text>
<text x="892" y="101" fill="#667085" font-size="11" font-weight="500"><tspan x="892" dy="0">Map</tspan></text>
<text x="1767" y="100" fill="#667085" font-size="10" font-weight="500"><tspan x="1767" dy="0">1 turn · 4 sources</tspan></text>
<ellipse cx="1876" cy="96" rx="6" ry="6" fill="#81d88d" stroke="#2f7d3a" stroke-width="1" filter="url(#w)"/>
<polyline points="38,121 1878,121" fill="none" stroke="#cbd1d6" stroke-width="1"/>
<text x="58" y="153" fill="#d64b38" font-size="9" font-weight="500"><tspan x="58" dy="0">TURN 01 · SAGE</tspan></text>
<text x="58" y="196" fill="#17212b" font-size="28" font-weight="600"><tspan x="58" dy="0">Where does a city keep its memories?</tspan></text>
<rect x="1260" y="146" width="106" height="32" rx="6" fill="#dfff58" stroke="#17212b" stroke-width="1"  filter="url(#w)"/>
<text x="1280" y="164" fill="#17212b" font-size="9" font-weight="500"><tspan x="1280" dy="0">COMPOSED</tspan></text>
<rect x="1380" y="146" width="108" height="32" rx="6" fill="#ffffff" stroke="#aeb7be" stroke-width="1"  filter="url(#w)"/>
<text x="1391" y="165" fill="#17212b" font-size="12" font-weight="500"><tspan x="1391" dy="0">◉</tspan></text>
<text x="1413" y="163" fill="#17212b" font-size="8" font-weight="500"><tspan x="1413" dy="0">READ</tspan></text>
<rect x="1500" y="146" width="108" height="32" rx="6" fill="#ffffff" stroke="#aeb7be" stroke-width="1"  filter="url(#w)"/>
<text x="1511" y="165" fill="#17212b" font-size="12" font-weight="500"><tspan x="1511" dy="0">◇</tspan></text>
<text x="1533" y="163" fill="#17212b" font-size="8" font-weight="500"><tspan x="1533" dy="0">SAVE</tspan></text>
<rect x="1620" y="146" width="108" height="32" rx="6" fill="#ffffff" stroke="#aeb7be" stroke-width="1"  filter="url(#w)"/>
<text x="1631" y="165" fill="#17212b" font-size="12" font-weight="500"><tspan x="1631" dy="0">⇩</tspan></text>
<text x="1653" y="163" fill="#17212b" font-size="8" font-weight="500"><tspan x="1653" dy="0">EXPORT</tspan></text>
<rect x="1740" y="146" width="108" height="32" rx="6" fill="#ffffff" stroke="#aeb7be" stroke-width="1"  filter="url(#w)"/>
<text x="1751" y="165" fill="#17212b" font-size="12" font-weight="500"><tspan x="1751" dy="0">↗</tspan></text>
<text x="1773" y="163" fill="#17212b" font-size="8" font-weight="500"><tspan x="1773" dy="0">MAP</tspan></text>
<text x="58" y="218" fill="#17212b" font-size="11" font-weight="500"><tspan x="58" dy="0">Sage · patient connections</tspan></text>
<text x="220" y="216" fill="#1971c2" font-size="8" font-weight="500"><tspan x="220" dy="0">LIVE WEB RESEARCH</tspan></text>
<text x="350" y="217" fill="#667085" font-size="9" font-weight="500"><tspan x="350" dy="0">4 sources · 38 sec · $0.018</tspan></text>
<polyline points="38,236 1878,236" fill="none" stroke="#cbd1d6" stroke-width="1"/>
<rect x="58" y="262" width="1190" height="86" rx="6" fill="#efffc4" stroke="#17212b" stroke-width="1"  filter="url(#w)"/>
<text x="78" y="286" fill="#17212b" font-size="8" font-weight="500"><tspan x="78" dy="0">SHORT ANSWER</tspan></text>
<text x="78" y="319" fill="#17212b" font-size="18" font-weight="500"><tspan x="78" dy="0">A city remembers through official records, physical places, and stories that communities keep alive.</tspan></text>
<ellipse cx="1133.5" cy="309.5" rx="8.5" ry="8.5" fill="#acd8ff" stroke="#17212b" stroke-width="1" filter="url(#w)"/>
<text x="1130.5" y="311" fill="#17212b" font-size="8" font-weight="500"><tspan x="1130.5" dy="0">1</tspan></text>
<text x="58" y="389" fill="#667085" font-size="9" font-weight="500"><tspan x="58" dy="0">THREE FINDINGS</tspan></text>
<rect x="58" y="406" width="375" height="174" rx="6" fill="#e6f4ff" stroke="#17212b" stroke-width="1"  filter="url(#w)"/>
<text x="76" y="435" fill="#667085" font-size="11" font-weight="500"><tspan x="76" dy="0">01</tspan></text>
<text x="76" y="474" fill="#17212b" font-size="21" font-weight="500"><tspan x="76" dy="0">Records</tspan></text>
<text x="76" y="502" fill="#17212b" font-size="13" font-weight="500"><tspan x="76" dy="0">Laws, plans, archives, and names preserve the decisions a city made.</tspan></text>
<ellipse cx="399.5" cy="546.5" rx="8.5" ry="8.5" fill="#acd8ff" stroke="#17212b" stroke-width="1" filter="url(#w)"/>
<text x="396.5" y="548" fill="#17212b" font-size="8" font-weight="500"><tspan x="396.5" dy="0">1</tspan></text>
<rect x="458" y="406" width="375" height="174" rx="6" fill="#fff1bf" stroke="#17212b" stroke-width="1"  filter="url(#w)"/>
<text x="476" y="435" fill="#667085" font-size="11" font-weight="500"><tspan x="476" dy="0">02</tspan></text>
<text x="476" y="474" fill="#17212b" font-size="21" font-weight="500"><tspan x="476" dy="0">Places</tspan></text>
<text x="476" y="502" fill="#17212b" font-size="13" font-weight="500"><tspan x="476" dy="0">Buildings and streets turn memory into something people encounter daily.</tspan></text>
<ellipse cx="799.5" cy="546.5" rx="8.5" ry="8.5" fill="#acd8ff" stroke="#17212b" stroke-width="1" filter="url(#w)"/>
<text x="796.5" y="548" fill="#17212b" font-size="8" font-weight="500"><tspan x="796.5" dy="0">2</tspan></text>
<rect x="858" y="406" width="375" height="174" rx="6" fill="#f3e8ff" stroke="#17212b" stroke-width="1"  filter="url(#w)"/>
<text x="876" y="435" fill="#667085" font-size="11" font-weight="500"><tspan x="876" dy="0">03</tspan></text>
<text x="876" y="474" fill="#17212b" font-size="21" font-weight="500"><tspan x="876" dy="0">Rituals</tspan></text>
<text x="876" y="502" fill="#17212b" font-size="13" font-weight="500"><tspan x="876" dy="0">Stories, festivals, and protest routes preserve what institutions may omit.</tspan></text>
<ellipse cx="1199.5" cy="546.5" rx="8.5" ry="8.5" fill="#acd8ff" stroke="#17212b" stroke-width="1" filter="url(#w)"/>
<text x="1196.5" y="548" fill="#17212b" font-size="8" font-weight="500"><tspan x="1196.5" dy="0">3</tspan></text>
<rect x="1280" y="262" width="580" height="198" rx="6" fill="#17212b" stroke="#17212b" stroke-width="1"  filter="url(#w)"/>
<text x="1304" y="291" fill="#dfff58" font-size="9" font-weight="500"><tspan x="1304" dy="0">WHAT REMAINS UNCERTAIN</tspan></text>
<text x="1304" y="335" fill="#fffdf8" font-size="19" font-weight="500"><tspan x="1304" dy="0">Whose memories are absent?</tspan></text>
<text x="1304" y="363" fill="#bac3ca" font-size="12" font-weight="500"><tspan x="1304" dy="0">Official archives can document decisions</tspan></text>
<text x="1304" y="386" fill="#bac3ca" font-size="12" font-weight="500"><tspan x="1304" dy="0">without capturing how those decisions felt</tspan></text>
<text x="1304" y="409" fill="#bac3ca" font-size="12" font-weight="500"><tspan x="1304" dy="0">to displaced or marginalized residents.</tspan></text>
<rect x="1280" y="478" width="580" height="82" rx="6" fill="#ffded8" stroke="#ff7b67" stroke-width="1"  filter="url(#w)"/>
<text x="1304" y="501" fill="#d64b38" font-size="8" font-weight="500"><tspan x="1304" dy="0">CONFIDENCE</tspan></text>
<text x="1304" y="529" fill="#17212b" font-size="13" font-weight="500"><tspan x="1304" dy="0">High on the pattern · medium on local exceptions</tspan></text>
<rect x="1280" y="580" width="580" height="35" rx="6" fill="#ffffff" stroke="#aeb7be" stroke-width="1"  filter="url(#w)"/>
<text x="1293" y="599" fill="#17212b" font-size="9" font-weight="500"><tspan x="1293" dy="0">Sources &amp; evidence</tspan></text>
<text x="1768" y="598" fill="#667085" font-size="8" font-weight="500"><tspan x="1768" dy="0">4 links</tspan></text>
<text x="1842" y="599" fill="#17212b" font-size="11" font-weight="500"><tspan x="1842" dy="0">⌄</tspan></text>
<rect x="1280" y="615" width="580" height="35" rx="6" fill="#ffffff" stroke="#aeb7be" stroke-width="1"  filter="url(#w)"/>
<text x="1293" y="634" fill="#17212b" font-size="9" font-weight="500"><tspan x="1293" dy="0">Research trail</tspan></text>
<text x="1768" y="633" fill="#667085" font-size="8" font-weight="500"><tspan x="1768" dy="0">activity</tspan></text>
<text x="1842" y="634" fill="#17212b" font-size="11" font-weight="500"><tspan x="1842" dy="0">⌄</tspan></text>
<rect x="1280" y="650" width="580" height="35" rx="6" fill="#ffffff" stroke="#aeb7be" stroke-width="1"  filter="url(#w)"/>
<text x="1293" y="669" fill="#17212b" font-size="9" font-weight="500"><tspan x="1293" dy="0">Run details</tspan></text>
<text x="1768" y="668" fill="#667085" font-size="8" font-weight="500"><tspan x="1768" dy="0">model · cost</tspan></text>
<text x="1842" y="669" fill="#17212b" font-size="11" font-weight="500"><tspan x="1842" dy="0">⌄</tspan></text>
<polyline points="52,790 1867,790" fill="none" stroke="#17212b" stroke-width="1"/>
<text x="58" y="817" fill="#d64b38" font-size="9" font-weight="500"><tspan x="58" dy="0">UP NEXT · CHOOSE ONE</tspan></text>
<text x="58" y="846" fill="#17212b" font-size="18" font-weight="500"><tspan x="58" dy="0">Where should curiosity go next?</tspan></text>
<rect x="58" y="858" width="708" height="124" rx="6" fill="#acd8ff" stroke="#17212b" stroke-width="2"  filter="url(#w)"/>
<ellipse cx="87" cy="885" rx="11" ry="11" fill="#17212b" stroke="#17212b" stroke-width="1" filter="url(#w)"/>
<text x="84" y="885" fill="#ffffff" font-size="9" font-weight="500"><tspan x="84" dy="0">A</tspan></text>
<text x="110" y="884" fill="#17212b" font-size="8" font-weight="500"><tspan x="110" dy="0">PLACE &amp; POWER</tspan></text>
<text x="77" y="924" fill="#17212b" font-size="17" font-weight="500"><tspan x="77" dy="0">Who decides which city memories become official?</tspan></text>
<polyline points="77,945 742,945" fill="none" stroke="#5d7587" stroke-width="1"/>
<text x="77" y="965" fill="#17212b" font-size="8" font-weight="500"><tspan x="77" dy="0">TAKE THIS PATH</tspan></text>
<text x="730" y="967" fill="#17212b" font-size="16" font-weight="500"><tspan x="730" dy="0">↘</tspan></text>
<rect x="786" y="858" width="708" height="124" rx="6" fill="#dfff58" stroke="#17212b" stroke-width="2"  filter="url(#w)"/>
<ellipse cx="815" cy="885" rx="11" ry="11" fill="#17212b" stroke="#17212b" stroke-width="1" filter="url(#w)"/>
<text x="812" y="885" fill="#ffffff" font-size="9" font-weight="500"><tspan x="812" dy="0">B</tspan></text>
<text x="838" y="884" fill="#17212b" font-size="8" font-weight="500"><tspan x="838" dy="0">LOSS &amp; RECOVERY</tspan></text>
<text x="805" y="924" fill="#17212b" font-size="17" font-weight="500"><tspan x="805" dy="0">Can a city recover a memory it deliberately erased?</tspan></text>
<polyline points="805,945 1470,945" fill="none" stroke="#71831e" stroke-width="1"/>
<text x="805" y="965" fill="#17212b" font-size="8" font-weight="500"><tspan x="805" dy="0">TAKE THIS PATH</tspan></text>
<text x="1458" y="967" fill="#17212b" font-size="16" font-weight="500"><tspan x="1458" dy="0">↘</tspan></text>
<rect x="1517" y="858" width="350" height="48" rx="6" fill="#17212b" stroke="#17212b" stroke-width="1"  filter="url(#w)"/>
<text x="1535" y="883" fill="#ffffff" font-size="9" font-weight="500"><tspan x="1535" dy="0">✦  LET SAGE CHOOSE</tspan></text>
<text x="1835" y="886" fill="#dfff58" font-size="14" font-weight="500"><tspan x="1835" dy="0">→</tspan></text>
<rect x="1517" y="918" width="350" height="64" rx="6" fill="#ffffff" stroke="#aeb7be" stroke-width="1"  filter="url(#w)"/>
<text x="1535" y="938" fill="#667085" font-size="8" font-weight="500"><tspan x="1535" dy="0">NEITHER?</tspan></text>
<text x="1535" y="960" fill="#17212b" font-size="10" font-weight="500"><tspan x="1535" dy="0">Adjust direction &amp; redraw</tspan></text>
<text x="1837" y="958" fill="#ff7b67" font-size="14" font-weight="500"><tspan x="1837" dy="0">↻</tspan></text>
<rect x="1510" y="207" width="350" height="24" rx="6" fill="#f4f1e9" stroke="#aeb7be" stroke-width="1"  filter="url(#w)"/>
<text x="1522" y="220" fill="#667085" font-size="7" font-weight="500"><tspan x="1522" dy="0">SCANNABLE RESEARCH BRIEF · No image · summary, findings, and uncertainty at a glance</tspan></text>
</svg>